# xmcd
#
# Track frame offsets:
#	150
#	23394
#	38570
#	50495
#	61595
#	76680
#	90380
#	106106
#	120788
#	134694
#	147595
#	161982
#	174634
#	201074
#	214787
#	226139
#	240579
#	253527
#
# Disc length: 3546 seconds
#
# Revision: 3
# Processed by: cddbd v1.5.2PL0 Copyright (c) Steve Scherf et al.
# Submitted via: EasyCDDAExtractor 11.1.0.1
#
DISCID=de0dd812
DTITLE=Various Artist - Ladies Sing The Blues (3)
DYEAR=2002
DGENRE=Blues
TTITLE0=Nina Simone - Porgy
TTITLE1=Sarah Vaughan - The Nearness of You
TTITLE2=Ella Fitzgerald - A Tisket A Tasket
TTITLE3=Peggy Lee - You Was Right Baby
TTITLE4=Lena Horne - Good For Nothin' Joe
TTITLE5=Sarah Vaughan - September Love Song
TTITLE6=Nina Simone - Black Is The Colour Of My True Love's Hair
TTITLE7=Peggy Lee - Why Don't You Do Right
TTITLE8=Ella Fitzgerald - Under The Spell Of The Blues
TTITLE9=Sarah Vaughan - Can't Get Out Of This Mood
TTITLE10=Dina Shore - Blues In The Night
TTITLE11=Lena Horne - Careless Blues
TTITLE12=Nina Simone - You Can Have Him
TTITLE13=Lena Horne - St Louis Blues
TTITLE14=Billie Holiday - Billie's Blues
TTITLE15=Peggy Lee - On The Sunny Side Of The Street
TTITLE16=Sarah Vaughan - I Get A Kick Out Of You
TTITLE17=Billie Holiday - Summertime
EXTD=
EXTT0=
EXTT1=
EXTT2=
EXTT3=
EXTT4=
EXTT5=
EXTT6=
EXTT7=
EXTT8=
EXTT9=
EXTT10=
EXTT11=
EXTT12=
EXTT13=
EXTT14=
EXTT15=
EXTT16=
EXTT17=
PLAYORDER=
